<?xml version="1.0" encoding="utf-8"?>
<!-- Generator: Adobe Illustrator 15.0.0, SVG Export Plug-In . SVG Version: 6.00 Build 0)  -->
<!DOCTYPE svg PUBLIC "-//W3C//DTD SVG 1.1//EN" "http://www.w3.org/Graphics/SVG/1.1/DTD/svg11.dtd">
<svg version="1.1" id="Layer_1" xmlns="http://www.w3.org/2000/svg" xmlns:xlink="http://www.w3.org/1999/xlink" x="0px" y="0px"
	 width="40px" height="40px" viewBox="0 0 40 40" enable-background="new 0 0 40 40" xml:space="preserve">
<g>
	<circle fill="#DB3665" cx="19.966" cy="-126.967" r="19.966"/>
	<g>
		<path fill="#A3D070" d="M19.966-108.116c-3.522,0-6.39-2.866-6.39-6.391c0-3.522,2.867-6.39,6.39-6.39
			c3.522,0,6.392,2.866,6.392,6.39C26.355-110.982,23.488-108.116,19.966-108.116z M19.966-117.453
			c-1.624,0-2.946,1.322-2.946,2.946c0,1.625,1.322,2.946,2.946,2.946c1.625,0,2.947-1.321,2.947-2.946
			C22.913-116.131,21.591-117.453,19.966-117.453z"/>
	</g>
	<path fill="#FCAF17" d="M21.365-122.498c-0.303,0-0.596-0.027-0.886-0.079c-1.341-0.245-2.498-1.069-3.443-2.452
		c-0.775-1.137-0.821-1.203-3.598,0.574c-1.41,0.903-3.34,2.137-5.561,1.635c-1.769-0.402-3.331-1.781-4.917-4.34
		c-0.501-0.809-0.252-1.869,0.557-2.37c0.807-0.501,1.868-0.252,2.369,0.556c1.294,2.088,2.211,2.673,2.753,2.797
		c0.756,0.17,1.737-0.406,2.941-1.176c2.489-1.598,5.592-3.584,8.299,0.383c0.548,0.803,0.955,0.958,1.215,1.006
		c0.822,0.149,2.238-0.478,4.211-1.859c2.064-1.449,4.289-2.729,6.545-2.273c1.627,0.33,3.006,1.472,4.338,3.597
		c0.504,0.806,0.261,1.867-0.547,2.374c-0.807,0.504-1.867,0.26-2.373-0.547c-0.772-1.234-1.479-1.923-2.1-2.049
		c-0.761-0.157-1.997,0.391-3.886,1.717C24.828-123.283,22.997-122.498,21.365-122.498z"/>
	<path fill="#E5E52C" d="M19.82-130.307c-0.008,0-0.017,0-0.024,0c-0.614-0.009-1.179-0.344-1.479-0.882l-5.949-10.644
		c-0.3-0.536-0.29-1.192,0.022-1.722c0.316-0.528,0.868-0.867,1.504-0.839l12.191,0.169c0.614,0.009,1.179,0.345,1.479,0.882
		c0.299,0.537,0.289,1.193-0.024,1.721l-6.241,10.475C20.988-130.625,20.425-130.307,19.82-130.307z M16.828-140.91l3.04,5.439
		l3.188-5.352L16.828-140.91z"/>
</g>
<g>
	<g>
		<path fill="#FFFFFF" d="M19.966,39.434C9.232,39.434,0.5,30.701,0.5,19.966C0.5,9.233,9.232,0.5,19.966,0.5
			c10.734,0,19.468,8.732,19.468,19.466C39.434,30.701,30.7,39.434,19.966,39.434z"/>
		<g>
			<path fill="#DBDBDB" d="M19.966,1c10.458,0,18.968,8.508,18.968,18.966c0,10.458-8.51,18.967-18.968,18.967S1,30.424,1,19.966
				C1,9.508,9.508,1,19.966,1 M19.966,0C8.939,0,0,8.939,0,19.966c0,11.03,8.939,19.967,19.966,19.967
				c11.027,0,19.968-8.938,19.968-19.967C39.934,8.939,30.993,0,19.966,0L19.966,0z"/>
		</g>
	</g>
	<g>
		<g>
			<path fill="#DBDBDB" d="M19.966,27.037c2.974,0,5.392,2.418,5.392,5.389c0,2.973-2.418,5.391-5.392,5.391
				c-2.972,0-5.39-2.418-5.39-5.391C14.576,29.455,16.994,27.037,19.966,27.037 M19.966,36.373c2.177,0,3.947-1.771,3.947-3.947
				s-1.771-3.945-3.947-3.945c-2.176,0-3.946,1.771-3.946,3.945C16.02,34.602,17.79,36.373,19.966,36.373 M19.966,26.037
				c-3.522,0-6.39,2.865-6.39,6.389s2.867,6.391,6.39,6.391c3.522,0,6.392-2.865,6.392-6.391
				C26.355,28.904,23.488,26.037,19.966,26.037L19.966,26.037z M19.966,35.373c-1.624,0-2.946-1.322-2.946-2.947
				c0-1.623,1.322-2.945,2.946-2.945c1.625,0,2.947,1.322,2.947,2.945C22.913,34.051,21.591,35.373,19.966,35.373L19.966,35.373z"/>
		</g>
	</g>
	<g>
		<path fill="#DBDBDB" d="M30.902,17.741c0.255,0,0.507,0.025,0.75,0.074c1.341,0.271,2.513,1.271,3.688,3.146
			c0.211,0.338,0.107,0.785-0.229,0.996c-0.116,0.072-0.248,0.109-0.383,0.109c-0.252,0-0.48-0.127-0.613-0.34
			c-0.95-1.517-1.823-2.311-2.745-2.498c-0.149-0.03-0.31-0.047-0.474-0.047c-1,0-2.293,0.594-4.188,1.925
			c-2.294,1.609-3.94,2.326-5.345,2.326c-0.232,0-0.467-0.021-0.704-0.062c-1.069-0.195-2.011-0.879-2.798-2.033
			c-0.4-0.586-0.854-1.25-1.76-1.25c-0.757,0-1.528,0.474-3.203,1.546c-1.108,0.709-2.487,1.592-3.979,1.592
			c-0.276,0-0.553-0.029-0.82-0.09c-1.491-0.34-2.854-1.576-4.289-3.893c-0.102-0.164-0.133-0.357-0.089-0.545
			c0.044-0.188,0.158-0.346,0.323-0.448c0.114-0.071,0.244-0.108,0.377-0.108c0.253,0,0.482,0.128,0.615,0.342
			c1.201,1.938,2.307,3,3.383,3.244c0.16,0.037,0.328,0.057,0.5,0.057c0.988,0,1.991-0.592,3.201-1.364
			c1.299-0.834,2.771-1.777,4.102-1.777c1.041,0,1.967,0.615,2.831,1.881c0.577,0.848,1.169,1.301,1.861,1.428
			c0.139,0.023,0.285,0.037,0.436,0.037c1.084,0,2.523-0.654,4.53-2.062C27.419,18.847,29.221,17.741,30.902,17.741 M30.902,16.741
			c-1.93,0-3.822,1.121-5.598,2.367c-1.781,1.25-3.109,1.882-3.955,1.882c-0.091,0-0.177-0.01-0.256-0.021
			c-0.26-0.049-0.667-0.203-1.215-1.007c-1.172-1.718-2.419-2.318-3.657-2.318c-1.622,0-3.23,1.029-4.642,1.936
			c-1.061,0.678-1.948,1.205-2.661,1.205c-0.097,0-0.19-0.01-0.28-0.029c-0.542-0.123-1.459-0.708-2.753-2.797
			c-0.326-0.525-0.889-0.814-1.465-0.814c-0.31,0-0.622,0.084-0.904,0.259c-0.809,0.501-1.058,1.562-0.557,2.37
			c1.586,2.56,3.148,3.939,4.917,4.341c0.355,0.078,0.702,0.113,1.042,0.113c1.782,0,3.334-0.99,4.519-1.75
			c1.511-0.967,2.213-1.389,2.664-1.389c0.378,0,0.58,0.297,0.934,0.814c0.945,1.383,2.103,2.207,3.443,2.451
			c0.291,0.053,0.583,0.08,0.886,0.08c1.632,0,3.463-0.785,5.918-2.508c1.68-1.18,2.843-1.744,3.615-1.744
			c0.096,0,0.187,0.009,0.271,0.026c0.619,0.126,1.326,0.813,2.101,2.05c0.328,0.523,0.888,0.809,1.461,0.809
			c0.312,0,0.627-0.084,0.912-0.262c0.807-0.508,1.051-1.568,0.547-2.375c-1.332-2.125-2.711-3.267-4.338-3.597
			C31.534,16.771,31.218,16.741,30.902,16.741L30.902,16.741z"/>
	</g>
	<g>
		<path fill="#DBDBDB" d="M13.822,2.537l0.059,1.001L26.07,3.707c0.258,0.004,0.496,0.146,0.621,0.369
			c0.125,0.225,0.121,0.502-0.012,0.723l-6.241,10.475c-0.129,0.217-0.365,0.352-0.629,0.352l0,0
			c-0.257-0.004-0.494-0.145-0.619-0.369L13.242,4.612c-0.125-0.225-0.121-0.502,0.007-0.721c0.064-0.106,0.248-0.354,0.574-0.354
			v-1 M19.841,13.462l0.888-1.488l3.188-5.352l0.886-1.488L23.07,5.111l-6.229-0.088l-1.731-0.024l0.845,1.513l3.04,5.438
			L19.841,13.462 M13.822,2.537c-0.605,0-1.127,0.333-1.432,0.84c-0.312,0.529-0.322,1.186-0.022,1.722l5.949,10.645
			c0.3,0.538,0.864,0.873,1.479,0.882c0.008,0,0.017,0,0.024,0c0.604,0,1.168-0.318,1.479-0.84L27.54,5.311
			c0.313-0.527,0.323-1.184,0.024-1.721c-0.301-0.537-0.864-0.873-1.479-0.882L13.894,2.539C13.87,2.538,13.846,2.537,13.822,2.537
			L13.822,2.537z M19.868,11.462l-3.04-5.439l6.229,0.088L19.868,11.462L19.868,11.462z"/>
	</g>
</g>
<g>
	<g>
		<circle fill="#F1F2F2" cx="19.966" cy="-26.967" r="19.966"/>
	</g>
	<g>
		<g>
			<path fill="#DBDBDB" d="M19.966-8.117c-3.522,0-6.39-2.867-6.39-6.391c0-3.522,2.867-6.389,6.39-6.389
				c3.522,0,6.392,2.866,6.392,6.389C26.355-10.984,23.488-8.117,19.966-8.117z M19.966-17.453c-1.624,0-2.946,1.322-2.946,2.945
				c0,1.625,1.322,2.947,2.946,2.947c1.625,0,2.947-1.322,2.947-2.947C22.913-16.131,21.591-17.453,19.966-17.453z"/>
		</g>
	</g>
	<g>
		<path fill="#DBDBDB" d="M21.365-22.499c-0.303,0-0.596-0.028-0.886-0.079c-1.341-0.246-2.498-1.069-3.443-2.452
			c-0.775-1.137-0.821-1.204-3.598,0.574c-1.41,0.903-3.34,2.136-5.561,1.634c-1.769-0.401-3.331-1.78-4.917-4.34
			c-0.501-0.807-0.252-1.868,0.557-2.369c0.807-0.501,1.868-0.252,2.369,0.556c1.294,2.089,2.211,2.673,2.753,2.796
			c0.756,0.171,1.737-0.406,2.941-1.176c2.489-1.597,5.592-3.583,8.299,0.383c0.548,0.805,0.955,0.959,1.215,1.007
			c0.822,0.149,2.238-0.476,4.211-1.859c2.064-1.449,4.289-2.729,6.545-2.273c1.627,0.33,3.006,1.472,4.338,3.597
			c0.504,0.806,0.261,1.867-0.547,2.374c-0.807,0.504-1.867,0.26-2.373-0.547c-0.772-1.234-1.479-1.923-2.1-2.049
			c-0.761-0.157-1.997,0.392-3.886,1.717C24.828-23.285,22.997-22.499,21.365-22.499z"/>
	</g>
	<g>
		<path fill="#DBDBDB" d="M19.82-30.308c-0.008,0-0.017,0-0.024,0c-0.614-0.009-1.179-0.344-1.479-0.882l-5.949-10.645
			c-0.3-0.536-0.29-1.192,0.022-1.722c0.316-0.528,0.868-0.867,1.504-0.839l12.191,0.169c0.614,0.009,1.179,0.345,1.479,0.881
			c0.299,0.538,0.289,1.194-0.024,1.722l-6.241,10.475C20.988-30.626,20.425-30.308,19.82-30.308z M16.828-40.911l3.04,5.439
			l3.188-5.352L16.828-40.911z"/>
	</g>
</g>
<g>
	<g>
		<circle fill="#D1D2D1" cx="19.966" cy="67.467" r="19.966"/>
	</g>
	<g>
		<g>
			<path fill="#FFFFFF" d="M19.966,86.316c-3.522,0-6.39-2.867-6.39-6.392c0-3.522,2.867-6.389,6.39-6.389
				c3.522,0,6.392,2.866,6.392,6.389C26.355,83.449,23.488,86.316,19.966,86.316z M19.966,76.98c-1.624,0-2.946,1.321-2.946,2.944
				c0,1.625,1.322,2.947,2.946,2.947c1.625,0,2.947-1.322,2.947-2.947C22.913,78.303,21.591,76.98,19.966,76.98z"/>
		</g>
	</g>
	<g>
		<path fill="#FFFFFF" d="M21.365,71.936c-0.303,0-0.596-0.028-0.886-0.08c-1.341-0.246-2.498-1.068-3.443-2.451
			c-0.775-1.137-0.821-1.204-3.598,0.574c-1.41,0.902-3.34,2.136-5.561,1.633c-1.769-0.4-3.331-1.779-4.917-4.34
			c-0.501-0.807-0.252-1.867,0.557-2.369c0.807-0.5,1.868-0.252,2.369,0.557c1.294,2.089,2.211,2.673,2.753,2.796
			c0.756,0.171,1.737-0.405,2.941-1.176c2.489-1.597,5.592-3.583,8.299,0.383c0.548,0.806,0.955,0.959,1.215,1.007
			c0.822,0.149,2.238-0.476,4.211-1.859c2.064-1.448,4.289-2.729,6.545-2.272c1.627,0.33,3.006,1.472,4.338,3.597
			c0.504,0.807,0.261,1.867-0.547,2.375c-0.807,0.504-1.867,0.26-2.373-0.548c-0.772-1.233-1.479-1.923-2.1-2.049
			c-0.761-0.157-1.997,0.392-3.886,1.717C24.828,71.148,22.997,71.936,21.365,71.936z"/>
	</g>
	<g>
		<path fill="#FFFFFF" d="M19.82,64.126c-0.008,0-0.017,0-0.024,0c-0.614-0.009-1.179-0.344-1.479-0.882L12.368,52.6
			c-0.3-0.535-0.29-1.191,0.022-1.722c0.316-0.528,0.868-0.866,1.504-0.839l12.191,0.17c0.614,0.009,1.179,0.346,1.479,0.881
			c0.299,0.538,0.289,1.194-0.024,1.723l-6.241,10.475C20.988,63.809,20.425,64.126,19.82,64.126z M16.828,53.521l3.04,5.439
			l3.188-5.352L16.828,53.521z"/>
	</g>
</g>
</svg>
