<?xml version="1.0" encoding="utf-8"?>
<!-- Generator: Adobe Illustrator 15.0.0, SVG Export Plug-In . SVG Version: 6.00 Build 0)  -->
<!DOCTYPE svg PUBLIC "-//W3C//DTD SVG 1.1//EN" "http://www.w3.org/Graphics/SVG/1.1/DTD/svg11.dtd">
<svg version="1.1" id="Layer_1" xmlns="http://www.w3.org/2000/svg" xmlns:xlink="http://www.w3.org/1999/xlink" x="0px" y="0px"
	 width="40px" height="40px" viewBox="0 0 40 40" enable-background="new 0 0 40 40" xml:space="preserve">
<g>
	<circle fill="#DB3665" cx="19.966" cy="-140.534" r="19.966"/>
	<g>
		<path fill="#A3D070" d="M19.966-121.684c-3.522,0-6.39-2.867-6.39-6.391c0-3.522,2.867-6.389,6.39-6.389
			c3.523,0,6.391,2.867,6.391,6.389C26.356-124.551,23.489-121.684,19.966-121.684z M19.966-131.02
			c-1.624,0-2.946,1.322-2.946,2.946c0,1.625,1.322,2.947,2.946,2.947c1.625,0,2.947-1.322,2.947-2.947
			C22.913-129.698,21.591-131.02,19.966-131.02z"/>
	</g>
	<path fill="#FCAF17" d="M21.365-136.065c-0.302,0-0.596-0.028-0.886-0.079c-1.341-0.246-2.498-1.069-3.443-2.453
		c-0.775-1.136-0.821-1.203-3.598,0.575c-1.41,0.903-3.34,2.136-5.561,1.634c-1.769-0.402-3.331-1.78-4.917-4.34
		c-0.501-0.808-0.252-1.869,0.557-2.37c0.807-0.5,1.868-0.252,2.369,0.556c1.294,2.088,2.211,2.673,2.753,2.796
		c0.756,0.17,1.737-0.406,2.941-1.176c2.489-1.597,5.592-3.583,8.299,0.383c0.548,0.804,0.955,0.958,1.215,1.006
		c0.822,0.15,2.238-0.476,4.211-1.859c2.064-1.45,4.289-2.729,6.545-2.273c1.627,0.329,3.006,1.471,4.338,3.596
		c0.504,0.805,0.26,1.867-0.547,2.375c-0.807,0.503-1.867,0.26-2.373-0.547c-0.773-1.234-1.48-1.923-2.1-2.049
		c-0.761-0.157-1.997,0.391-3.886,1.717C24.828-136.851,22.997-136.065,21.365-136.065z"/>
	<path fill="#E5E52C" d="M19.82-143.874c-0.008,0-0.017,0-0.024,0c-0.614-0.008-1.179-0.344-1.479-0.881L12.368-155.4
		c-0.3-0.537-0.29-1.193,0.022-1.722c0.316-0.528,0.868-0.867,1.504-0.839l12.191,0.169c0.614,0.009,1.179,0.345,1.479,0.882
		c0.3,0.537,0.29,1.193-0.024,1.722l-6.241,10.474C20.988-144.192,20.425-143.874,19.82-143.874z M16.828-154.478l3.04,5.439
		l3.188-5.352L16.828-154.478z"/>
</g>
<g>
	<g>
		<g>
			<path fill="#DBDBDB" d="M19.966-104.75c10.458,0,18.967,8.508,18.967,18.966s-8.509,18.966-18.967,18.966S1-75.326,1-85.784
				S9.508-104.75,19.966-104.75 M19.966-105.75C8.939-105.75,0-96.811,0-85.784c0,11.028,8.939,19.966,19.966,19.966
				c11.027,0,19.967-8.938,19.967-19.966C39.933-96.811,30.993-105.75,19.966-105.75L19.966-105.75z"/>
		</g>
	</g>
	<g>
		<g>
			<path fill="#DBDBDB" d="M19.966-78.713c2.973,0,5.391,2.417,5.391,5.389c0,2.972-2.418,5.391-5.391,5.391
				c-2.972,0-5.39-2.418-5.39-5.391C14.576-76.296,16.994-78.713,19.966-78.713 M19.966-69.377c2.177,0,3.947-1.771,3.947-3.947
				c0-2.176-1.771-3.946-3.947-3.946c-2.176,0-3.946,1.77-3.946,3.946C16.02-71.147,17.79-69.377,19.966-69.377 M19.966-79.713
				c-3.522,0-6.39,2.867-6.39,6.389c0,3.523,2.867,6.391,6.39,6.391c3.523,0,6.391-2.867,6.391-6.391
				C26.356-76.847,23.489-79.713,19.966-79.713L19.966-79.713z M19.966-70.377c-1.624,0-2.946-1.322-2.946-2.947
				c0-1.624,1.322-2.946,2.946-2.946c1.625,0,2.947,1.322,2.947,2.946C22.913-71.699,21.591-70.377,19.966-70.377L19.966-70.377z"/>
		</g>
	</g>
	<g>
		<path fill="#DBDBDB" d="M30.903-88.008c0.254,0,0.506,0.025,0.749,0.074c1.341,0.271,2.513,1.271,3.688,3.146
			c0.211,0.337,0.107,0.785-0.229,0.996c-0.116,0.072-0.248,0.11-0.382,0.11c-0.252,0-0.481-0.127-0.614-0.339
			c-0.95-1.517-1.823-2.311-2.745-2.498c-0.15-0.031-0.31-0.047-0.473-0.047c-1.001,0-2.294,0.594-4.189,1.924
			c-2.294,1.609-3.941,2.327-5.344,2.327c-0.233,0-0.467-0.021-0.705-0.062c-1.069-0.196-2.011-0.88-2.798-2.033
			c-0.4-0.586-0.854-1.25-1.76-1.25c-0.757,0-1.528,0.475-3.203,1.547c-1.108,0.709-2.487,1.592-3.979,1.592
			c-0.276,0-0.553-0.031-0.82-0.091c-1.491-0.339-2.854-1.575-4.289-3.892c-0.102-0.163-0.133-0.356-0.089-0.544
			s0.158-0.347,0.323-0.449c0.114-0.071,0.244-0.108,0.377-0.108c0.253,0,0.482,0.127,0.615,0.341c1.201,1.938,2.307,3,3.383,3.245
			c0.16,0.036,0.328,0.054,0.5,0.054c0.988,0,1.991-0.591,3.201-1.364c1.299-0.833,2.771-1.777,4.102-1.777
			c1.041,0,1.967,0.616,2.831,1.882c0.577,0.847,1.169,1.3,1.861,1.426c0.139,0.025,0.285,0.038,0.435,0.038
			c1.085,0,2.524-0.655,4.531-2.062C27.419-86.904,29.22-88.008,30.903-88.008 M30.903-89.008c-1.93,0-3.823,1.121-5.598,2.367
			c-1.782,1.25-3.109,1.881-3.956,1.881c-0.09,0-0.176-0.007-0.255-0.022c-0.26-0.047-0.667-0.202-1.215-1.006
			c-1.172-1.717-2.419-2.318-3.657-2.318c-1.622,0-3.23,1.03-4.642,1.936c-1.061,0.678-1.948,1.206-2.661,1.206
			c-0.097,0-0.19-0.009-0.28-0.03c-0.542-0.124-1.459-0.708-2.753-2.796c-0.326-0.525-0.889-0.814-1.465-0.814
			c-0.31,0-0.622,0.083-0.904,0.258c-0.809,0.501-1.058,1.562-0.557,2.37c1.586,2.56,3.148,3.938,4.917,4.34
			c0.355,0.08,0.702,0.116,1.042,0.116c1.782,0,3.334-0.992,4.519-1.75c1.511-0.968,2.213-1.389,2.664-1.389
			c0.378,0,0.58,0.296,0.934,0.814c0.945,1.384,2.103,2.207,3.443,2.453c0.29,0.051,0.584,0.079,0.886,0.079
			c1.632,0,3.463-0.786,5.918-2.508c1.68-1.179,2.843-1.743,3.615-1.743c0.096,0,0.187,0.009,0.271,0.026
			c0.619,0.126,1.326,0.815,2.1,2.049c0.328,0.522,0.888,0.809,1.462,0.809c0.312,0,0.627-0.084,0.911-0.262
			c0.807-0.507,1.051-1.569,0.547-2.375c-1.332-2.125-2.711-3.267-4.338-3.596C31.534-88.979,31.218-89.008,30.903-89.008
			L30.903-89.008z"/>
	</g>
	<g>
		<path fill="#DBDBDB" d="M13.822-103.212l0.059,1.001l12.189,0.169c0.258,0.004,0.496,0.146,0.621,0.369
			c0.125,0.225,0.121,0.501-0.011,0.723l-6.241,10.474c-0.129,0.216-0.365,0.351-0.629,0.351H19.81
			c-0.257-0.003-0.494-0.145-0.619-0.369l-5.949-10.645c-0.125-0.224-0.121-0.502,0.007-0.72c0.064-0.106,0.248-0.354,0.574-0.354
			V-103.212 M19.841-92.289l0.887-1.488l3.188-5.352l0.886-1.487l-1.731-0.024l-6.229-0.087l-1.731-0.024l0.845,1.512l3.04,5.439
			L19.841-92.289 M13.822-103.212c-0.605,0-1.127,0.333-1.432,0.84c-0.312,0.529-0.322,1.185-0.022,1.722l5.949,10.645
			c0.3,0.538,0.864,0.873,1.479,0.881c0.008,0,0.017,0,0.024,0c0.604,0,1.168-0.318,1.479-0.84l6.241-10.474
			c0.314-0.528,0.324-1.185,0.024-1.722c-0.3-0.537-0.864-0.873-1.479-0.882l-12.191-0.169
			C13.87-103.212,13.846-103.212,13.822-103.212L13.822-103.212z M19.868-94.289l-3.04-5.439l6.229,0.087L19.868-94.289
			L19.868-94.289z"/>
	</g>
</g>
<g>
	<g>
		<circle fill="#F1F2F2" cx="19.966" cy="-35.033" r="19.966"/>
	</g>
	<g>
		<g>
			<path fill="#DBDBDB" d="M19.966-16.184c-3.522,0-6.39-2.867-6.39-6.391c0-3.522,2.867-6.389,6.39-6.389
				c3.523,0,6.391,2.866,6.391,6.389C26.356-19.051,23.489-16.184,19.966-16.184z M19.966-25.52c-1.624,0-2.946,1.322-2.946,2.945
				c0,1.625,1.322,2.947,2.946,2.947c1.625,0,2.947-1.322,2.947-2.947C22.913-24.197,21.591-25.52,19.966-25.52z"/>
		</g>
	</g>
	<g>
		<path fill="#DBDBDB" d="M21.365-30.565c-0.302,0-0.596-0.028-0.886-0.079c-1.341-0.246-2.498-1.069-3.443-2.452
			c-0.775-1.137-0.821-1.204-3.598,0.574c-1.41,0.903-3.34,2.136-5.561,1.634c-1.769-0.401-3.331-1.78-4.917-4.34
			c-0.501-0.807-0.252-1.868,0.557-2.369c0.807-0.501,1.868-0.252,2.369,0.556c1.294,2.089,2.211,2.673,2.753,2.796
			c0.756,0.171,1.737-0.406,2.941-1.176c2.489-1.597,5.592-3.583,8.299,0.383c0.548,0.805,0.955,0.959,1.215,1.007
			c0.822,0.149,2.238-0.476,4.211-1.859c2.064-1.449,4.289-2.729,6.545-2.273c1.627,0.33,3.006,1.472,4.338,3.597
			c0.504,0.806,0.26,1.867-0.547,2.374c-0.807,0.504-1.867,0.26-2.373-0.547c-0.773-1.234-1.48-1.923-2.1-2.049
			c-0.761-0.157-1.997,0.392-3.886,1.717C24.828-31.352,22.997-30.565,21.365-30.565z"/>
	</g>
	<g>
		<path fill="#DBDBDB" d="M19.82-38.374c-0.008,0-0.017,0-0.024,0c-0.614-0.009-1.179-0.344-1.479-0.882L12.368-49.9
			c-0.3-0.536-0.29-1.192,0.022-1.722c0.316-0.528,0.868-0.867,1.504-0.839l12.191,0.169c0.614,0.009,1.179,0.345,1.479,0.881
			c0.3,0.538,0.29,1.194-0.024,1.722l-6.241,10.475C20.988-38.692,20.425-38.374,19.82-38.374z M16.828-48.978l3.04,5.439
			l3.188-5.352L16.828-48.978z"/>
	</g>
</g>
<g>
	<g>
		<circle fill="#D1D2D1" cx="19.966" cy="19.967" r="19.966"/>
	</g>
	<g>
		<g>
			<path fill="#FFFFFF" d="M19.966,38.816c-3.522,0-6.39-2.867-6.39-6.391c0-3.522,2.867-6.389,6.39-6.389
				c3.523,0,6.391,2.866,6.391,6.389C26.356,35.949,23.489,38.816,19.966,38.816z M19.966,29.48c-1.624,0-2.946,1.322-2.946,2.945
				c0,1.625,1.322,2.947,2.946,2.947c1.625,0,2.947-1.322,2.947-2.947C22.913,30.803,21.591,29.48,19.966,29.48z"/>
		</g>
	</g>
	<g>
		<path fill="#FFFFFF" d="M21.365,24.435c-0.302,0-0.596-0.028-0.886-0.079c-1.341-0.246-2.498-1.069-3.443-2.452
			c-0.775-1.137-0.821-1.204-3.598,0.574c-1.41,0.903-3.34,2.136-5.561,1.634c-1.769-0.401-3.331-1.78-4.917-4.34
			c-0.501-0.807-0.252-1.868,0.557-2.369c0.807-0.501,1.868-0.252,2.369,0.556c1.294,2.089,2.211,2.673,2.753,2.796
			c0.756,0.171,1.737-0.406,2.941-1.176c2.489-1.597,5.592-3.583,8.299,0.383c0.548,0.805,0.955,0.959,1.215,1.007
			c0.822,0.149,2.238-0.476,4.211-1.859c2.064-1.449,4.289-2.729,6.545-2.273c1.627,0.33,3.006,1.472,4.338,3.597
			c0.504,0.806,0.26,1.867-0.547,2.374c-0.807,0.504-1.867,0.26-2.373-0.547c-0.773-1.234-1.48-1.923-2.1-2.049
			c-0.761-0.157-1.997,0.392-3.886,1.717C24.828,23.648,22.997,24.435,21.365,24.435z"/>
	</g>
	<g>
		<path fill="#FFFFFF" d="M19.82,16.626c-0.008,0-0.017,0-0.024,0c-0.614-0.009-1.179-0.344-1.479-0.882L12.368,5.1
			c-0.3-0.536-0.29-1.192,0.022-1.722c0.316-0.528,0.868-0.867,1.504-0.839l12.191,0.169c0.614,0.009,1.179,0.345,1.479,0.881
			c0.3,0.538,0.29,1.194-0.024,1.722l-6.241,10.475C20.988,16.308,20.425,16.626,19.82,16.626z M16.828,6.022l3.04,5.439
			l3.188-5.352L16.828,6.022z"/>
	</g>
</g>
</svg>
